<svg width="120" height="32" viewBox="0 0 120 32" fill="none" 
    xmlns="http://www.w3.org/2000/svg">
    <g clip-path="url(#clip0)">
        <path d="M41.0607 9.94968H43.5818V12.0993H43.797C44.2546 11.2793 45.1448 9.77753 47.6047 9.77753C50.8077 9.77753 53.1725 12.3077 53.1725 16.607C53.1725 20.8972 50.8417 23.4705 47.6297 23.4705C45.2127 23.4705 44.2636 21.9936 43.797 21.1487H43.6407V28.182H41.0584V9.94968H41.0607ZM47.052 21.2664C49.358 21.2664 50.5653 19.2369 50.5653 16.5798C50.5653 13.9477 49.392 11.9702 47.052 11.9702C44.7982 11.9702 43.5909 13.8095 43.5909 16.5798C43.5886 19.3682 44.8322 21.2664 47.052 21.2664Z" fill="#333740"/>
        <path d="M57.277 23.21H54.697V5.53033H57.277V23.21Z" fill="#333740"/>
        <path d="M58.9691 16.607C58.9691 12.3077 61.3248 9.77753 64.5278 9.77753C66.9968 9.77753 67.878 11.2793 68.3423 12.0993H68.4986V9.94968H71.0786V23.21H68.5575V21.1464H68.3423C67.8757 21.9936 66.9266 23.4682 64.5097 23.4682C61.2909 23.4682 58.9691 20.8972 58.9691 16.607ZM68.5439 16.5798C68.5439 13.8095 67.3343 11.9702 65.0827 11.9702C62.7519 11.9702 61.5785 13.9477 61.5785 16.5798C61.5785 19.2391 62.7791 21.2664 65.0827 21.2664C67.3094 21.2664 68.5439 19.3682 68.5439 16.5798Z" fill="#333740"/>
        <path d="M75.9352 23.21H73.3552V9.94968H75.8333V12.1084H75.9963C76.6102 10.7017 77.9127 9.77753 79.906 9.77753C82.6174 9.77753 84.4205 11.4945 84.4205 14.7767V23.21H81.8405V15.0871C81.8405 13.1617 80.7781 12.0132 79.0271 12.0132C77.2309 12.0132 75.9374 13.2228 75.9374 15.3362V23.21H75.9352Z" fill="#333740"/>
        <path d="M89.046 23.21H86.4659V9.94968H88.944V12.1084H89.1071C89.721 10.7017 91.0235 9.77753 93.0168 9.77753C95.7282 9.77753 97.5313 11.4945 97.5313 14.7767V23.21H94.9512V15.0871C94.9512 13.1617 93.8889 12.0132 92.1379 12.0132C90.3416 12.0132 89.0482 13.2228 89.0482 15.3362V23.21H89.046Z" fill="#333740"/>
        <path d="M98.9356 16.6659C98.9356 12.5909 101.371 9.77753 105.065 9.77753C108.069 9.77753 110.934 11.6508 110.934 16.4416V17.3568H101.507C101.575 19.9119 103.061 21.3457 105.271 21.3457C106.739 21.3457 107.86 20.707 108.327 19.4543L110.771 19.8938C110.184 22.0525 108.139 23.4773 105.246 23.4773C101.334 23.4773 98.9356 20.784 98.9356 16.6659ZM108.406 15.4223C108.397 13.3927 107.086 11.909 105.083 11.909C102.986 11.909 101.622 13.54 101.518 15.4223H108.406Z" fill="#333740"/>
        <path d="M112.441 9.9497H114.935V12.0563H115.073C115.555 10.6315 116.885 9.75037 118.439 9.75037C118.767 9.75037 119.277 9.77528 119.535 9.81153V12.2806C119.327 12.2194 118.724 12.1243 118.19 12.1243C116.359 12.1243 115.021 13.3769 115.021 15.112V23.21H112.441V9.9497Z" fill="#333740"/>
        <path d="M11.6135 20.3865V2.26517H29.7348V20.3865H11.6135ZM9.34833 22.6517H32V0H9.34833V22.6517Z" fill="#2E6BE6"/>
        <path d="M7.55206 11.677L20.3231 16.3251L15.6749 29.0961L2.90394 24.448L7.55206 11.677ZM6.19749 8.77301L0 25.8025L17.0295 32L23.227 14.9705L6.19749 8.77301Z" fill="#2E6BE6"/>
    </g>
    <defs>
        <clipPath id="clip0">
            <rect width="119.537" height="32" fill="white"/>
        </clipPath>
    </defs>
</svg>